<svg width="19" height="20" viewBox="0 0 19 20" fill="none" xmlns="http://www.w3.org/2000/svg">
<g clip-path="url(#clip0_2287_9533)">
<path d="M12.8568 6.64203C11.9306 5.71578 10.7193 5.2487 9.50016 5.2487V9.9987L6.1435 13.3554C7.996 15.2079 11.0043 15.2079 12.8647 13.3554C14.7172 11.5029 14.7172 8.49453 12.8568 6.64203ZM9.50016 2.08203C5.13016 2.08203 1.5835 5.6287 1.5835 9.9987C1.5835 14.3687 5.13016 17.9154 9.50016 17.9154C13.8702 17.9154 17.4168 14.3687 17.4168 9.9987C17.4168 5.6287 13.8702 2.08203 9.50016 2.08203ZM9.50016 16.332C6.001 16.332 3.16683 13.4979 3.16683 9.9987C3.16683 6.49953 6.001 3.66536 9.50016 3.66536C12.9993 3.66536 15.8335 6.49953 15.8335 9.9987C15.8335 13.4979 12.9993 16.332 9.50016 16.332Z" fill="black"/>
</g>
<defs>
<clipPath id="clip0_2287_9533">
<rect width="19" height="19" fill="white" transform="translate(0 0.5)"/>
</clipPath>
</defs>
</svg>
