<svg width="18" height="18" viewBox="0 0 18 18" fill="none" xmlns="http://www.w3.org/2000/svg">
<path d="M16.5 5.43001C16.5006 5.33131 16.4817 5.23346 16.4443 5.14208C16.407 5.0507 16.352 4.96759 16.2825 4.89751L13.1025 1.71751C13.0324 1.648 12.9493 1.59301 12.8579 1.55568C12.7666 1.51836 12.6687 1.49944 12.57 1.50001C12.4713 1.49944 12.3735 1.51836 12.2821 1.55568C12.1907 1.59301 12.1076 1.648 12.0375 1.71751L9.91501 3.84001L1.71751 12.0375C1.648 12.1076 1.59301 12.1907 1.55568 12.2821C1.51836 12.3735 1.49944 12.4713 1.50001 12.57V15.75C1.50001 15.9489 1.57903 16.1397 1.71968 16.2803C1.86033 16.421 2.0511 16.5 2.25001 16.5H5.43001C5.53496 16.5057 5.63993 16.4893 5.73813 16.4518C5.83632 16.4144 5.92555 16.3567 6.00001 16.2825L14.1525 8.08501L16.2825 6.00001C16.351 5.92732 16.4067 5.84366 16.4475 5.75251C16.4547 5.69273 16.4547 5.63229 16.4475 5.57251C16.451 5.5376 16.451 5.50242 16.4475 5.46751L16.5 5.43001ZM5.12251 15H3.00001V12.8775L10.4475 5.43001L12.57 7.55251L5.12251 15ZM13.6275 6.49501L11.505 4.37251L12.57 3.31501L14.685 5.43001L13.6275 6.49501Z" fill="#1E1E1E"/>
</svg>
